<mxfile host="app.diagrams.net" modified="2022-04-07T08:59:17.705Z" agent="5.0 (Macintosh)" etag="aJY96AwYDK3zX5OqaILT" version="17.4.0" type="github">
  <diagram id="6a731a19-8d31-9384-78a2-239565b7b9f0" name="Page-1">
    <mxGraphModel dx="946" dy="516" grid="1" gridSize="10" guides="1" tooltips="1" connect="1" arrows="1" fold="1" page="1" pageScale="1" pageWidth="1169" pageHeight="827" background="none" math="0" shadow="0">
      <root>
        <mxCell id="0" />
        <mxCell id="1" parent="0" />
        <mxCell id="2" value="start" style="shape=mxgraph.flowchart.terminator;strokeWidth=2;gradientColor=none;gradientDirection=north;fontStyle=0;html=1;" parent="1" vertex="1">
          <mxGeometry x="275" y="60" width="120" height="30" as="geometry" />
        </mxCell>
        <mxCell id="7" style="fontStyle=1;strokeColor=#003366;strokeWidth=1;html=1;entryX=0.5;entryY=0;entryDx=0;entryDy=0;" parent="1" source="2" target="Mcld1OXDu3ZVwBjZxup_-56" edge="1">
          <mxGeometry relative="1" as="geometry">
            <mxPoint x="335" y="130" as="targetPoint" />
          </mxGeometry>
        </mxCell>
        <mxCell id="Mcld1OXDu3ZVwBjZxup_-55" value="" style="shape=parallelogram;perimeter=parallelogramPerimeter;whiteSpace=wrap;html=1;fixedSize=1;" vertex="1" parent="1">
          <mxGeometry x="205" y="140" width="260" height="60" as="geometry" />
        </mxCell>
        <mxCell id="Mcld1OXDu3ZVwBjZxup_-59" style="edgeStyle=orthogonalEdgeStyle;rounded=0;orthogonalLoop=1;jettySize=auto;html=1;exitX=0.5;exitY=1;exitDx=0;exitDy=0;entryX=0.5;entryY=0;entryDx=0;entryDy=0;fontSize=14;" edge="1" parent="1" source="Mcld1OXDu3ZVwBjZxup_-56" target="Mcld1OXDu3ZVwBjZxup_-57">
          <mxGeometry relative="1" as="geometry" />
        </mxCell>
        <mxCell id="Mcld1OXDu3ZVwBjZxup_-56" value="&lt;div&gt;&lt;font style=&quot;font-size: 14px&quot;&gt;data, ftol = 1e-6, xtol = &lt;/font&gt;&lt;font style=&quot;font-size: 14px&quot;&gt;&lt;font style=&quot;font-size: 14px&quot;&gt;1e-6&lt;/font&gt;, &lt;br&gt;&lt;/font&gt;&lt;/div&gt;&lt;div&gt;&lt;font style=&quot;font-size: 14px&quot;&gt;b = 0.1&lt;/font&gt;&lt;/div&gt;" style="text;html=1;strokeColor=none;fillColor=none;align=center;verticalAlign=middle;whiteSpace=wrap;rounded=0;" vertex="1" parent="1">
          <mxGeometry x="225" y="140" width="220" height="60" as="geometry" />
        </mxCell>
        <mxCell id="Mcld1OXDu3ZVwBjZxup_-67" style="edgeStyle=orthogonalEdgeStyle;rounded=0;orthogonalLoop=1;jettySize=auto;html=1;exitX=0.5;exitY=1;exitDx=0;exitDy=0;entryX=0.5;entryY=0;entryDx=0;entryDy=0;fontSize=14;" edge="1" parent="1" source="Mcld1OXDu3ZVwBjZxup_-57" target="Mcld1OXDu3ZVwBjZxup_-62">
          <mxGeometry relative="1" as="geometry" />
        </mxCell>
        <mxCell id="Mcld1OXDu3ZVwBjZxup_-57" value="" style="rounded=0;whiteSpace=wrap;html=1;fontSize=14;" vertex="1" parent="1">
          <mxGeometry x="200" y="240" width="270" height="60" as="geometry" />
        </mxCell>
        <mxCell id="Mcld1OXDu3ZVwBjZxup_-58" value="optimalResult = +INF" style="text;html=1;strokeColor=none;fillColor=none;align=center;verticalAlign=middle;whiteSpace=wrap;rounded=0;fontSize=14;" vertex="1" parent="1">
          <mxGeometry x="235" y="255" width="210" height="30" as="geometry" />
        </mxCell>
        <mxCell id="Mcld1OXDu3ZVwBjZxup_-115" style="edgeStyle=orthogonalEdgeStyle;rounded=0;orthogonalLoop=1;jettySize=auto;html=1;exitX=0.5;exitY=1;exitDx=0;exitDy=0;entryX=0.5;entryY=0;entryDx=0;entryDy=0;fontSize=14;" edge="1" parent="1" source="Mcld1OXDu3ZVwBjZxup_-62" target="Mcld1OXDu3ZVwBjZxup_-75">
          <mxGeometry relative="1" as="geometry" />
        </mxCell>
        <mxCell id="Mcld1OXDu3ZVwBjZxup_-62" value="" style="rounded=0;whiteSpace=wrap;html=1;fontSize=14;" vertex="1" parent="1">
          <mxGeometry x="200" y="340" width="270" height="60" as="geometry" />
        </mxCell>
        <mxCell id="Mcld1OXDu3ZVwBjZxup_-63" value="i = 0" style="text;html=1;strokeColor=none;fillColor=none;align=center;verticalAlign=middle;whiteSpace=wrap;rounded=0;fontSize=14;" vertex="1" parent="1">
          <mxGeometry x="235" y="355" width="210" height="30" as="geometry" />
        </mxCell>
        <mxCell id="Mcld1OXDu3ZVwBjZxup_-80" style="edgeStyle=orthogonalEdgeStyle;rounded=0;orthogonalLoop=1;jettySize=auto;html=1;exitX=0.5;exitY=1;exitDx=0;exitDy=0;entryX=0.5;entryY=0;entryDx=0;entryDy=0;fontSize=14;" edge="1" parent="1" source="Mcld1OXDu3ZVwBjZxup_-75" target="Mcld1OXDu3ZVwBjZxup_-77">
          <mxGeometry relative="1" as="geometry" />
        </mxCell>
        <mxCell id="Mcld1OXDu3ZVwBjZxup_-75" value="" style="rounded=0;whiteSpace=wrap;html=1;fontSize=14;" vertex="1" parent="1">
          <mxGeometry x="200" y="440" width="270" height="120" as="geometry" />
        </mxCell>
        <mxCell id="Mcld1OXDu3ZVwBjZxup_-76" value="&lt;div&gt;currentResult = interpolate(&lt;/div&gt;&lt;div&gt;data, ftol, xtol, b)&lt;/div&gt;" style="text;html=1;strokeColor=none;fillColor=none;align=center;verticalAlign=middle;whiteSpace=wrap;rounded=0;fontSize=14;" vertex="1" parent="1">
          <mxGeometry x="230" y="470" width="210" height="50" as="geometry" />
        </mxCell>
        <mxCell id="Mcld1OXDu3ZVwBjZxup_-82" style="edgeStyle=orthogonalEdgeStyle;rounded=0;orthogonalLoop=1;jettySize=auto;html=1;exitX=0.5;exitY=1;exitDx=0;exitDy=0;fontSize=14;" edge="1" parent="1" source="Mcld1OXDu3ZVwBjZxup_-77">
          <mxGeometry relative="1" as="geometry">
            <mxPoint x="335" y="790" as="targetPoint" />
          </mxGeometry>
        </mxCell>
        <mxCell id="Mcld1OXDu3ZVwBjZxup_-85" style="edgeStyle=orthogonalEdgeStyle;rounded=0;orthogonalLoop=1;jettySize=auto;html=1;exitX=1;exitY=0.5;exitDx=0;exitDy=0;fontSize=14;entryX=0.5;entryY=0;entryDx=0;entryDy=0;" edge="1" parent="1" source="Mcld1OXDu3ZVwBjZxup_-77" target="Mcld1OXDu3ZVwBjZxup_-91">
          <mxGeometry relative="1" as="geometry">
            <mxPoint x="715" y="790" as="targetPoint" />
            <Array as="points">
              <mxPoint x="720" y="668" />
            </Array>
          </mxGeometry>
        </mxCell>
        <mxCell id="Mcld1OXDu3ZVwBjZxup_-77" value="" style="rhombus;whiteSpace=wrap;html=1;fontSize=14;" vertex="1" parent="1">
          <mxGeometry x="215" y="600" width="240" height="136" as="geometry" />
        </mxCell>
        <mxCell id="Mcld1OXDu3ZVwBjZxup_-78" value="currentResult &amp;lt; optimalResult" style="text;html=1;strokeColor=none;fillColor=none;align=center;verticalAlign=middle;whiteSpace=wrap;rounded=0;fontSize=14;" vertex="1" parent="1">
          <mxGeometry x="210" y="608" width="250" height="120" as="geometry" />
        </mxCell>
        <mxCell id="Mcld1OXDu3ZVwBjZxup_-88" style="edgeStyle=orthogonalEdgeStyle;rounded=0;orthogonalLoop=1;jettySize=auto;html=1;exitX=0.5;exitY=1;exitDx=0;exitDy=0;fontSize=14;" edge="1" parent="1" source="Mcld1OXDu3ZVwBjZxup_-83">
          <mxGeometry relative="1" as="geometry">
            <mxPoint x="335" y="970" as="targetPoint" />
          </mxGeometry>
        </mxCell>
        <mxCell id="Mcld1OXDu3ZVwBjZxup_-83" value="" style="rounded=0;whiteSpace=wrap;html=1;fontSize=14;" vertex="1" parent="1">
          <mxGeometry x="205" y="790" width="260" height="100" as="geometry" />
        </mxCell>
        <mxCell id="Mcld1OXDu3ZVwBjZxup_-84" value="optimalResult = currentResult" style="text;html=1;strokeColor=none;fillColor=none;align=center;verticalAlign=middle;whiteSpace=wrap;rounded=0;fontSize=14;" vertex="1" parent="1">
          <mxGeometry x="230" y="815" width="210" height="50" as="geometry" />
        </mxCell>
        <mxCell id="Mcld1OXDu3ZVwBjZxup_-86" value="vero" style="text;html=1;strokeColor=none;fillColor=none;align=center;verticalAlign=middle;whiteSpace=wrap;rounded=0;fontSize=14;" vertex="1" parent="1">
          <mxGeometry x="355" y="736" width="60" height="30" as="geometry" />
        </mxCell>
        <mxCell id="Mcld1OXDu3ZVwBjZxup_-87" value="falso" style="text;html=1;strokeColor=none;fillColor=none;align=center;verticalAlign=middle;whiteSpace=wrap;rounded=0;fontSize=14;" vertex="1" parent="1">
          <mxGeometry x="505" y="620" width="60" height="30" as="geometry" />
        </mxCell>
        <mxCell id="Mcld1OXDu3ZVwBjZxup_-119" style="edgeStyle=orthogonalEdgeStyle;rounded=0;orthogonalLoop=1;jettySize=auto;html=1;exitX=0.5;exitY=1;exitDx=0;exitDy=0;fontSize=14;entryX=1;entryY=0.5;entryDx=0;entryDy=0;" edge="1" parent="1" source="Mcld1OXDu3ZVwBjZxup_-91" target="Mcld1OXDu3ZVwBjZxup_-93">
          <mxGeometry relative="1" as="geometry">
            <mxPoint x="720" y="1030" as="targetPoint" />
          </mxGeometry>
        </mxCell>
        <mxCell id="Mcld1OXDu3ZVwBjZxup_-91" value="" style="rounded=0;whiteSpace=wrap;html=1;fontSize=14;" vertex="1" parent="1">
          <mxGeometry x="590" y="800" width="260" height="100" as="geometry" />
        </mxCell>
        <mxCell id="Mcld1OXDu3ZVwBjZxup_-92" value="i +=1" style="text;html=1;strokeColor=none;fillColor=none;align=center;verticalAlign=middle;whiteSpace=wrap;rounded=0;fontSize=14;" vertex="1" parent="1">
          <mxGeometry x="607.5" y="827.5" width="225" height="45" as="geometry" />
        </mxCell>
        <mxCell id="Mcld1OXDu3ZVwBjZxup_-100" value="" style="edgeStyle=orthogonalEdgeStyle;rounded=0;orthogonalLoop=1;jettySize=auto;html=1;fontSize=14;" edge="1" parent="1" source="Mcld1OXDu3ZVwBjZxup_-93" target="Mcld1OXDu3ZVwBjZxup_-98">
          <mxGeometry relative="1" as="geometry" />
        </mxCell>
        <mxCell id="Mcld1OXDu3ZVwBjZxup_-93" value="" style="rounded=0;whiteSpace=wrap;html=1;fontSize=14;" vertex="1" parent="1">
          <mxGeometry x="205" y="970" width="260" height="100" as="geometry" />
        </mxCell>
        <mxCell id="Mcld1OXDu3ZVwBjZxup_-94" value="b += passo" style="text;html=1;strokeColor=none;fillColor=none;align=center;verticalAlign=middle;whiteSpace=wrap;rounded=0;fontSize=14;" vertex="1" parent="1">
          <mxGeometry x="230" y="995" width="210" height="50" as="geometry" />
        </mxCell>
        <mxCell id="Mcld1OXDu3ZVwBjZxup_-96" value="k = numero di iterazioni massime senza miglioramenti" style="text;html=1;strokeColor=none;fillColor=none;align=center;verticalAlign=middle;whiteSpace=wrap;rounded=0;fontSize=14;" vertex="1" parent="1">
          <mxGeometry x="550" y="80" width="340" height="30" as="geometry" />
        </mxCell>
        <mxCell id="Mcld1OXDu3ZVwBjZxup_-101" style="edgeStyle=orthogonalEdgeStyle;rounded=0;orthogonalLoop=1;jettySize=auto;html=1;exitX=0.5;exitY=1;exitDx=0;exitDy=0;fontSize=14;" edge="1" parent="1" source="Mcld1OXDu3ZVwBjZxup_-98">
          <mxGeometry relative="1" as="geometry">
            <mxPoint x="335" y="1330" as="targetPoint" />
          </mxGeometry>
        </mxCell>
        <mxCell id="Mcld1OXDu3ZVwBjZxup_-102" style="edgeStyle=orthogonalEdgeStyle;rounded=0;orthogonalLoop=1;jettySize=auto;html=1;exitX=1;exitY=0.5;exitDx=0;exitDy=0;fontSize=14;" edge="1" parent="1" source="Mcld1OXDu3ZVwBjZxup_-98">
          <mxGeometry relative="1" as="geometry">
            <mxPoint x="495" y="1198" as="targetPoint" />
          </mxGeometry>
        </mxCell>
        <mxCell id="Mcld1OXDu3ZVwBjZxup_-98" value="" style="rhombus;whiteSpace=wrap;html=1;fontSize=14;" vertex="1" parent="1">
          <mxGeometry x="215" y="1130" width="240" height="136" as="geometry" />
        </mxCell>
        <mxCell id="Mcld1OXDu3ZVwBjZxup_-99" value="&lt;div&gt;currentResult.resultCode == 5&lt;/div&gt;" style="text;html=1;strokeColor=none;fillColor=none;align=center;verticalAlign=middle;whiteSpace=wrap;rounded=0;fontSize=14;" vertex="1" parent="1">
          <mxGeometry x="210" y="1138" width="250" height="120" as="geometry" />
        </mxCell>
        <mxCell id="Mcld1OXDu3ZVwBjZxup_-103" value="" style="rounded=0;whiteSpace=wrap;html=1;fontSize=14;" vertex="1" parent="1">
          <mxGeometry x="205" y="1760" width="260" height="100" as="geometry" />
        </mxCell>
        <mxCell id="Mcld1OXDu3ZVwBjZxup_-104" value="passo = 0.01" style="text;html=1;strokeColor=none;fillColor=none;align=center;verticalAlign=middle;whiteSpace=wrap;rounded=0;fontSize=14;" vertex="1" parent="1">
          <mxGeometry x="230" y="1785" width="210" height="50" as="geometry" />
        </mxCell>
        <mxCell id="Mcld1OXDu3ZVwBjZxup_-105" value="passo = incremento della soglia del periodo per ogni iterazione" style="text;html=1;strokeColor=none;fillColor=none;align=center;verticalAlign=middle;whiteSpace=wrap;rounded=0;fontSize=14;" vertex="1" parent="1">
          <mxGeometry x="550" y="130" width="340" height="30" as="geometry" />
        </mxCell>
        <mxCell id="Mcld1OXDu3ZVwBjZxup_-108" style="edgeStyle=orthogonalEdgeStyle;rounded=0;orthogonalLoop=1;jettySize=auto;html=1;exitX=0.5;exitY=1;exitDx=0;exitDy=0;fontSize=14;" edge="1" parent="1" source="Mcld1OXDu3ZVwBjZxup_-106">
          <mxGeometry relative="1" as="geometry">
            <mxPoint x="335" y="1520" as="targetPoint" />
          </mxGeometry>
        </mxCell>
        <mxCell id="Mcld1OXDu3ZVwBjZxup_-111" style="edgeStyle=orthogonalEdgeStyle;rounded=0;orthogonalLoop=1;jettySize=auto;html=1;exitX=1;exitY=0.5;exitDx=0;exitDy=0;fontSize=14;entryX=0.5;entryY=0;entryDx=0;entryDy=0;" edge="1" parent="1" source="Mcld1OXDu3ZVwBjZxup_-106" target="Mcld1OXDu3ZVwBjZxup_-103">
          <mxGeometry relative="1" as="geometry">
            <mxPoint x="615" y="1690" as="targetPoint" />
            <Array as="points">
              <mxPoint x="605" y="1398" />
              <mxPoint x="605" y="1720" />
              <mxPoint x="335" y="1720" />
            </Array>
          </mxGeometry>
        </mxCell>
        <mxCell id="Mcld1OXDu3ZVwBjZxup_-106" value="" style="rhombus;whiteSpace=wrap;html=1;fontSize=14;" vertex="1" parent="1">
          <mxGeometry x="215" y="1330" width="240" height="136" as="geometry" />
        </mxCell>
        <mxCell id="Mcld1OXDu3ZVwBjZxup_-107" value="passo == 0.01" style="text;html=1;strokeColor=none;fillColor=none;align=center;verticalAlign=middle;whiteSpace=wrap;rounded=0;fontSize=14;" vertex="1" parent="1">
          <mxGeometry x="265" y="1370" width="140" height="56" as="geometry" />
        </mxCell>
        <mxCell id="Mcld1OXDu3ZVwBjZxup_-112" style="edgeStyle=orthogonalEdgeStyle;rounded=0;orthogonalLoop=1;jettySize=auto;html=1;exitX=0.5;exitY=1;exitDx=0;exitDy=0;fontSize=14;" edge="1" parent="1" source="Mcld1OXDu3ZVwBjZxup_-109">
          <mxGeometry relative="1" as="geometry">
            <mxPoint x="335" y="1660" as="targetPoint" />
          </mxGeometry>
        </mxCell>
        <mxCell id="Mcld1OXDu3ZVwBjZxup_-109" value="" style="rounded=0;whiteSpace=wrap;html=1;fontSize=14;" vertex="1" parent="1">
          <mxGeometry x="205" y="1520" width="260" height="100" as="geometry" />
        </mxCell>
        <mxCell id="Mcld1OXDu3ZVwBjZxup_-110" value="return optimalResult" style="text;html=1;strokeColor=none;fillColor=none;align=center;verticalAlign=middle;whiteSpace=wrap;rounded=0;fontSize=14;" vertex="1" parent="1">
          <mxGeometry x="230" y="1545" width="210" height="50" as="geometry" />
        </mxCell>
        <mxCell id="Mcld1OXDu3ZVwBjZxup_-114" value="fine" style="shape=mxgraph.flowchart.terminator;strokeWidth=2;gradientColor=none;gradientDirection=north;fontStyle=0;html=1;" vertex="1" parent="1">
          <mxGeometry x="275" y="1665" width="120" height="30" as="geometry" />
        </mxCell>
        <mxCell id="Mcld1OXDu3ZVwBjZxup_-120" value="vero" style="text;html=1;strokeColor=none;fillColor=none;align=center;verticalAlign=middle;whiteSpace=wrap;rounded=0;fontSize=14;" vertex="1" parent="1">
          <mxGeometry x="360" y="1466" width="60" height="30" as="geometry" />
        </mxCell>
        <mxCell id="Mcld1OXDu3ZVwBjZxup_-121" value="falso" style="text;html=1;strokeColor=none;fillColor=none;align=center;verticalAlign=middle;whiteSpace=wrap;rounded=0;fontSize=14;" vertex="1" parent="1">
          <mxGeometry x="505" y="1360" width="60" height="30" as="geometry" />
        </mxCell>
      </root>
    </mxGraphModel>
  </diagram>
</mxfile>
